{
 "asset": {
  "generator": "meadows prop generator",
  "version": "2.0"
 },
 "scene": 0,
 "scenes": [
  {
   "name": "Scene",
   "nodes": [
    0
   ]
  }
 ],
 "nodes": [
  {
   "mesh": 0,
   "name": "Campfire"
  }
 ],
 "materials": [
  {
   "name": "stone",
   "doubleSided": false,
   "pbrMetallicRoughness": {
    "baseColorFactor": [
     0.42,
     0.4,
     0.38,
     1.0
    ],
    "metallicFactor": 0.0,
    "roughnessFactor": 0.9
   }
  },
  {
   "name": "log",
   "doubleSided": false,
   "pbrMetallicRoughness": {
    "baseColorFactor": [
     0.3,
     0.19,
     0.1,
     1.0
    ],
    "metallicFactor": 0.0,
    "roughnessFactor": 0.9
   }
  },
  {
   "name": "embers",
   "doubleSided": false,
   "pbrMetallicRoughness": {
    "baseColorFactor": [
     0.55,
     0.12,
     0.03,
     1.0
    ],
    "metallicFactor": 0.0,
    "roughnessFactor": 0.9
   }
  }
 ],
 "meshes": [
  {
   "name": "Campfire",
   "primitives": [
    {
     "attributes": {
      "POSITION": 0,
      "NORMAL": 1,
      "TEXCOORD_0": 2
     },
     "indices": 3,
     "material": 0
    },
    {
     "attributes": {
      "POSITION": 4,
      "NORMAL": 5,
      "TEXCOORD_0": 6
     },
     "indices": 7,
     "material": 1
    },
    {
     "attributes": {
      "POSITION": 8,
      "NORMAL": 9,
      "TEXCOORD_0": 10
     },
     "indices": 11,
     "material": 2
    }
   ]
  }
 ],
 "accessors": [
  {
   "bufferView": 0,
   "componentType": 5126,
   "count": 216,
   "type": "VEC3",
   "min": [
    -0.7154493552635618,
    -0.023393979785544763,
    -0.7174130197559613
   ],
   "max": [
    0.746943810760992,
    0.20711050856544697,
    0.6951432240841191
   ]
  },
  {
   "bufferView": 1,
   "componentType": 5126,
   "count": 216,
   "type": "VEC3"
  },
  {
   "bufferView": 2,
   "componentType": 5126,
   "count": 216,
   "type": "VEC2"
  },
  {
   "bufferView": 3,
   "componentType": 5123,
   "count": 324,
   "type": "SCALAR"
  },
  {
   "bufferView": 4,
   "componentType": 5126,
   "count": 96,
   "type": "VEC3",
   "min": [
    -0.42335923568888534,
    -0.042093930939409524,
    -0.4170969427147209
   ],
   "max": [
    0.42335923568888534,
    0.4220939309394095,
    0.4170969427147209
   ]
  },
  {
   "bufferView": 5,
   "componentType": 5126,
   "count": 96,
   "type": "VEC3"
  },
  {
   "bufferView": 6,
   "componentType": 5126,
   "count": 96,
   "type": "VEC2"
  },
  {
   "bufferView": 7,
   "componentType": 5123,
   "count": 144,
   "type": "SCALAR"
  },
  {
   "bufferView": 8,
   "componentType": 5126,
   "count": 24,
   "type": "VEC3",
   "min": [
    -0.3276198340778839,
    0.0,
    -0.3276198340778839
   ],
   "max": [
    0.3276198340778839,
    0.06,
    0.3276198340778839
   ]
  },
  {
   "bufferView": 9,
   "componentType": 5126,
   "count": 24,
   "type": "VEC3"
  },
  {
   "bufferView": 10,
   "componentType": 5126,
   "count": 24,
   "type": "VEC2"
  },
  {
   "bufferView": 11,
   "componentType": 5123,
   "count": 36,
   "type": "SCALAR"
  }
 ],
 "bufferViews": [
  {
   "buffer": 0,
   "byteOffset": 0,
   "byteLength": 2592,
   "target": 34962
  },
  {
   "buffer": 0,
   "byteOffset": 2592,
   "byteLength": 2592,
   "target": 34962
  },
  {
   "buffer": 0,
   "byteOffset": 5184,
   "byteLength": 1728,
   "target": 34962
  },
  {
   "buffer": 0,
   "byteOffset": 6912,
   "byteLength": 648,
   "target": 34963
  },
  {
   "buffer": 0,
   "byteOffset": 7560,
   "byteLength": 1152,
   "target": 34962
  },
  {
   "buffer": 0,
   "byteOffset": 8712,
   "byteLength": 1152,
   "target": 34962
  },
  {
   "buffer": 0,
   "byteOffset": 9864,
   "byteLength": 768,
   "target": 34962
  },
  {
   "buffer": 0,
   "byteOffset": 10632,
   "byteLength": 288,
   "target": 34963
  },
  {
   "buffer": 0,
   "byteOffset": 10920,
   "byteLength": 288,
   "target": 34962
  },
  {
   "buffer": 0,
   "byteOffset": 11208,
   "byteLength": 288,
   "target": 34962
  },
  {
   "buffer": 0,
   "byteOffset": 11496,
   "byteLength": 192,
   "target": 34962
  },
  {
   "buffer": 0,
   "byteOffset": 11688,
   "byteLength": 72,
   "target": 34963
  }
 ],
 "buffers": [
  {
   "byteLength": 11760,
   "uri": "campfire.bin"
  }
 ]
}